<svg width="23" height="24" viewBox="0 0 23 24" fill="none" xmlns="http://www.w3.org/2000/svg">
<path d="M0.889744 22.51H-9.15527e-05V23.3998H0.889744V22.51Z" fill="#774017"/>
<path d="M0.889744 21.6011H-9.15527e-05V22.4909H0.889744V21.6011Z" fill="#9B5E2C"/>
<path d="M0.889744 20.7112H-9.15527e-05V21.601H0.889744V20.7112Z" fill="#9B5E2C"/>
<path d="M0.889744 1.87012H-9.15527e-05V2.75995H0.889744V1.87012Z" fill="#774017"/>
<path d="M0.889744 0.980225H-9.15527e-05V1.87005H0.889744V0.980225Z" fill="#9B5E2C"/>
<path d="M0.889744 0.090332H-9.15527e-05V0.980168H0.889744V0.090332Z" fill="#9B5E2C"/>
<path d="M6.28675 22.51H5.39692V23.3998H6.28675V22.51Z" fill="#774017"/>
<path d="M6.28675 21.6011H5.39692V22.4909H6.28675V21.6011Z" fill="#9B5E2C"/>
<path d="M6.28675 20.7112H5.39692V21.601H6.28675V20.7112Z" fill="#9B5E2C"/>
<path d="M6.28675 19.802H5.39692V20.6918H6.28675V19.802Z" fill="#C18C52"/>
<path d="M6.28675 18.9121H5.39692V19.8019H6.28675V18.9121Z" fill="#C18C52"/>
<path d="M6.28675 18.0222H5.39692V18.9121H6.28675V18.0222Z" fill="#C18C52"/>
<path d="M6.28675 17.1133H5.39692V18.0031H6.28675V17.1133Z" fill="#C18C52"/>
<path d="M6.28675 16.2229H5.39692V17.1127H6.28675V16.2229Z" fill="#8B9CD1"/>
<path d="M6.28675 15.3335H5.39692V16.2233H6.28675V15.3335Z" fill="#AABBE8"/>
<path d="M6.28675 14.4243H5.39692V15.3141H6.28675V14.4243Z" fill="#AABBE8"/>
<path d="M6.28675 13.5344H5.39692V14.4243H6.28675V13.5344Z" fill="#49568E"/>
<path d="M6.28675 12.6445H5.39692V13.5344H6.28675V12.6445Z" fill="#49568E"/>
<path d="M6.28675 9.93652H5.39692V10.8264H6.28675V9.93652Z" fill="#49568E"/>
<path d="M6.28675 9.04663H5.39692V9.93647H6.28675V9.04663Z" fill="#8B9CD1"/>
<path d="M6.28675 8.15674H5.39692V9.04657H6.28675V8.15674Z" fill="#E5B57C"/>
<path d="M6.28675 7.24731H5.39692V8.13715H6.28675V7.24731Z" fill="#E5B57C"/>
<path d="M6.28675 6.35791H5.39692V7.24775H6.28675V6.35791Z" fill="#8B9CD1"/>
<path d="M6.28675 5.46802H5.39692V6.35785H6.28675V5.46802Z" fill="#8B9CD1"/>
<path d="M6.28675 4.55859H5.39692V5.44842H6.28675V4.55859Z" fill="#8B9CD1"/>
<path d="M6.28675 3.66919H5.39692V4.55903H6.28675V3.66919Z" fill="#8B9CD1"/>
<path d="M6.28675 2.77905H5.39692V3.66889H6.28675V2.77905Z" fill="#8B9CD1"/>
<path d="M6.28675 1.87012H5.39692V2.75995H6.28675V1.87012Z" fill="#774017"/>
<path d="M6.28675 0.980225H5.39692V1.87005H6.28675V0.980225Z" fill="#9B5E2C"/>
<path d="M6.28675 0.090332H5.39692V0.980168H6.28675V0.090332Z" fill="#9B5E2C"/>
<path d="M5.37763 22.51H4.4878V23.3998H5.37763V22.51Z" fill="#774017"/>
<path d="M5.37763 21.6011H4.4878V22.4909H5.37763V21.6011Z" fill="#9B5E2C"/>
<path d="M5.37763 20.7112H4.4878V21.601H5.37763V20.7112Z" fill="#9B5E2C"/>
<path d="M5.37763 19.802H4.4878V20.6918H5.37763V19.802Z" fill="#C18C52"/>
<path d="M5.37763 18.9121H4.4878V19.8019H5.37763V18.9121Z" fill="#C18C52"/>
<path d="M5.37763 18.0222H4.4878V18.9121H5.37763V18.0222Z" fill="#C18C52"/>
<path d="M5.37763 17.1133H4.4878V18.0031H5.37763V17.1133Z" fill="#8B9CD1"/>
<path d="M5.37763 16.2229H4.4878V17.1127H5.37763V16.2229Z" fill="#8B9CD1"/>
<path d="M5.37763 15.3335H4.4878V16.2233H5.37763V15.3335Z" fill="#C7D5F2"/>
<path d="M5.37763 14.4243H4.4878V15.3141H5.37763V14.4243Z" fill="#C7D5F2"/>
<path d="M5.37763 13.5344H4.4878V14.4243H5.37763V13.5344Z" fill="#49568E"/>
<path d="M5.37763 12.6445H4.4878V13.5344H5.37763V12.6445Z" fill="#49568E"/>
<path d="M5.37763 9.93652H4.4878V10.8264H5.37763V9.93652Z" fill="#49568E"/>
<path d="M5.37763 9.04663H4.4878V9.93647H5.37763V9.04663Z" fill="#49568E"/>
<path d="M5.37763 8.15674H4.4878V9.04657H5.37763V8.15674Z" fill="#8B9CD1"/>
<path d="M5.37763 7.24731H4.4878V8.13715H5.37763V7.24731Z" fill="#8B9CD1"/>
<path d="M5.37763 6.35791H4.4878V7.24775H5.37763V6.35791Z" fill="#8B9CD1"/>
<path d="M5.37763 5.46802H4.4878V6.35785H5.37763V5.46802Z" fill="#8B9CD1"/>
<path d="M5.37763 4.55859H4.4878V5.44842H5.37763V4.55859Z" fill="#8B9CD1"/>
<path d="M5.37763 3.66919H4.4878V4.55903H5.37763V3.66919Z" fill="#8B9CD1"/>
<path d="M5.37763 2.77905H4.4878V3.66889H5.37763V2.77905Z" fill="#8B9CD1"/>
<path d="M5.37763 1.87012H4.4878V2.75995H5.37763V1.87012Z" fill="#774017"/>
<path d="M5.37763 0.980225H4.4878V1.87005H5.37763V0.980225Z" fill="#9B5E2C"/>
<path d="M5.37763 0.090332H4.4878V0.980168H5.37763V0.090332Z" fill="#9B5E2C"/>
<path d="M4.48772 22.51H3.59788V23.3998H4.48772V22.51Z" fill="#774017"/>
<path d="M4.48772 21.6011H3.59788V22.4909H4.48772V21.6011Z" fill="#9B5E2C"/>
<path d="M4.48772 20.7112H3.59788V21.601H4.48772V20.7112Z" fill="#9B5E2C"/>
<path d="M4.48772 19.802H3.59788V20.6918H4.48772V19.802Z" fill="#C7D5F2"/>
<path d="M4.48772 18.9121H3.59788V19.8019H4.48772V18.9121Z" fill="#C7D5F2"/>
<path d="M4.48772 18.0222H3.59788V18.9121H4.48772V18.0222Z" fill="#C7D5F2"/>
<path d="M4.48772 17.1133H3.59788V18.0031H4.48772V17.1133Z" fill="#C7D5F2"/>
<path d="M4.48772 16.2229H3.59788V17.1127H4.48772V16.2229Z" fill="#C7D5F2"/>
<path d="M4.48772 15.3335H3.59788V16.2233H4.48772V15.3335Z" fill="#49568E"/>
<path d="M4.48772 14.4243H3.59788V15.3141H4.48772V14.4243Z" fill="#49568E"/>
<path d="M4.48772 8.15674H3.59788V9.04657H4.48772V8.15674Z" fill="#49568E"/>
<path d="M4.48772 7.24731H3.59788V8.13715H4.48772V7.24731Z" fill="#8B9CD1"/>
<path d="M4.48772 6.35791H3.59788V7.24775H4.48772V6.35791Z" fill="#C7D5F2"/>
<path d="M4.48772 5.46802H3.59788V6.35785H4.48772V5.46802Z" fill="#C7D5F2"/>
<path d="M4.48772 4.55859H3.59788V5.44842H4.48772V4.55859Z" fill="#C7D5F2"/>
<path d="M4.48772 3.66919H3.59788V4.55903H4.48772V3.66919Z" fill="#8B9CD1"/>
<path d="M4.48772 2.77905H3.59788V3.66889H4.48772V2.77905Z" fill="#8B9CD1"/>
<path d="M4.48772 1.87012H3.59788V2.75995H4.48772V1.87012Z" fill="#774017"/>
<path d="M4.48772 0.980225H3.59788V1.87005H4.48772V0.980225Z" fill="#9B5E2C"/>
<path d="M4.48772 0.090332H3.59788V0.980168H4.48772V0.090332Z" fill="#9B5E2C"/>
<path d="M3.57854 22.51H2.68871V23.3998H3.57854V22.51Z" fill="#774017"/>
<path d="M3.57854 21.6011H2.68871V22.4909H3.57854V21.6011Z" fill="#9B5E2C"/>
<path d="M3.57854 20.7112H2.68871V21.601H3.57854V20.7112Z" fill="#9B5E2C"/>
<path d="M3.57854 19.802H2.68871V20.6918H3.57854V19.802Z" fill="#C7D5F2"/>
<path d="M3.57854 18.9121H2.68871V19.8019H3.57854V18.9121Z" fill="#C7D5F2"/>
<path d="M3.57854 18.0222H2.68871V18.9121H3.57854V18.0222Z" fill="#C7D5F2"/>
<path d="M3.57854 17.1133H2.68871V18.0031H3.57854V17.1133Z" fill="#C7D5F2"/>
<path d="M3.57854 16.2229H2.68871V17.1127H3.57854V16.2229Z" fill="#C7D5F2"/>
<path d="M3.57854 15.3335H2.68871V16.2233H3.57854V15.3335Z" fill="#49568E"/>
<path d="M3.57854 14.4243H2.68871V15.3141H3.57854V14.4243Z" fill="#49568E"/>
<path d="M3.57854 8.15674H2.68871V9.04657H3.57854V8.15674Z" fill="#49568E"/>
<path d="M3.57854 7.24731H2.68871V8.13715H3.57854V7.24731Z" fill="#49568E"/>
<path d="M3.57854 6.35791H2.68871V7.24775H3.57854V6.35791Z" fill="#C7D5F2"/>
<path d="M3.57854 5.46802H2.68871V6.35785H3.57854V5.46802Z" fill="#C7D5F2"/>
<path d="M3.57854 4.55859H2.68871V5.44842H3.57854V4.55859Z" fill="#C7D5F2"/>
<path d="M3.57854 3.66919H2.68871V4.55903H3.57854V3.66919Z" fill="#8B9CD1"/>
<path d="M3.57854 2.77905H2.68871V3.66889H3.57854V2.77905Z" fill="#8B9CD1"/>
<path d="M3.57854 1.87012H2.68871V2.75995H3.57854V1.87012Z" fill="#774017"/>
<path d="M3.57854 0.980225H2.68871V1.87005H3.57854V0.980225Z" fill="#9B5E2C"/>
<path d="M3.57854 0.090332H2.68871V0.980168H3.57854V0.090332Z" fill="#9B5E2C"/>
<path d="M2.68873 22.51H1.79889V23.3998H2.68873V22.51Z" fill="#774017"/>
<path d="M2.68873 21.6011H1.79889V22.4909H2.68873V21.6011Z" fill="#9B5E2C"/>
<path d="M2.68873 20.7112H1.79889V21.601H2.68873V20.7112Z" fill="#9B5E2C"/>
<path d="M2.68873 19.802H1.79889V20.6918H2.68873V19.802Z" fill="#49568E"/>
<path d="M2.68873 18.9121H1.79889V19.8019H2.68873V18.9121Z" fill="#49568E"/>
<path d="M2.68873 18.0222H1.79889V18.9121H2.68873V18.0222Z" fill="#49568E"/>
<path d="M2.68873 17.1133H1.79889V18.0031H2.68873V17.1133Z" fill="#49568E"/>
<path d="M2.68873 16.2229H1.79889V17.1127H2.68873V16.2229Z" fill="#49568E"/>
<path d="M2.68873 6.35791H1.79889V7.24775H2.68873V6.35791Z" fill="#49568E"/>
<path d="M2.68873 5.46802H1.79889V6.35785H2.68873V5.46802Z" fill="#49568E"/>
<path d="M2.68873 4.55859H1.79889V5.44842H2.68873V4.55859Z" fill="#49568E"/>
<path d="M2.68873 3.66919H1.79889V4.55903H2.68873V3.66919Z" fill="#49568E"/>
<path d="M2.68873 2.77905H1.79889V3.66889H2.68873V2.77905Z" fill="#49568E"/>
<path d="M2.68873 1.87012H1.79889V2.75995H2.68873V1.87012Z" fill="#774017"/>
<path d="M2.68873 0.980225H1.79889V1.87005H2.68873V0.980225Z" fill="#9B5E2C"/>
<path d="M2.68873 0.090332H1.79889V0.980168H2.68873V0.090332Z" fill="#9B5E2C"/>
<path d="M1.79886 22.51H0.909027V23.3998H1.79886V22.51Z" fill="#774017"/>
<path d="M1.79886 21.6011H0.909027V22.4909H1.79886V21.6011Z" fill="#9B5E2C"/>
<path d="M1.79886 20.7112H0.909027V21.601H1.79886V20.7112Z" fill="#9B5E2C"/>
<path d="M1.79886 1.87012H0.909027V2.75995H1.79886V1.87012Z" fill="#774017"/>
<path d="M1.79886 0.980225H0.909027V1.87005H1.79886V0.980225Z" fill="#9B5E2C"/>
<path d="M1.79886 0.090332H0.909027V0.980168H1.79886V0.090332Z" fill="#9B5E2C"/>
<path d="M7.17662 22.51H6.28679V23.3998H7.17662V22.51Z" fill="#933725"/>
<path d="M7.17662 21.6011H6.28679V22.4909H7.17662V21.6011Z" fill="#B2683F"/>
<path d="M7.17662 20.7112H6.28679V21.601H7.17662V20.7112Z" fill="#B2683F"/>
<path d="M7.17662 19.802H6.28679V20.6918H7.17662V19.802Z" fill="#C18C52"/>
<path d="M7.17662 18.9121H6.28679V19.8019H7.17662V18.9121Z" fill="#C18C52"/>
<path d="M7.17662 18.0222H6.28679V18.9121H7.17662V18.0222Z" fill="#C18C52"/>
<path d="M7.17662 17.1133H6.28679V18.0031H7.17662V17.1133Z" fill="#C18C52"/>
<path d="M7.17662 16.2229H6.28679V17.1127H7.17662V16.2229Z" fill="#C18C52"/>
<path d="M7.17662 15.3335H6.28679V16.2233H7.17662V15.3335Z" fill="#8B9CD1"/>
<path d="M7.17662 14.4243H6.28679V15.3141H7.17662V14.4243Z" fill="#C7D5F2"/>
<path d="M7.17662 13.5344H6.28679V14.4243H7.17662V13.5344Z" fill="#C7D5F2"/>
<path d="M7.17662 12.6445H6.28679V13.5344H7.17662V12.6445Z" fill="#49568E"/>
<path d="M7.17662 11.7356H6.28679V12.6254H7.17662V11.7356Z" fill="#49568E"/>
<path d="M7.17662 10.8452H6.28679V11.735H7.17662V10.8452Z" fill="#49568E"/>
<path d="M7.17662 9.93652H6.28679V10.8264H7.17662V9.93652Z" fill="#8B9CD1"/>
<path d="M7.17662 9.04663H6.28679V9.93647H7.17662V9.04663Z" fill="#8B9CD1"/>
<path d="M7.17662 8.15674H6.28679V9.04657H7.17662V8.15674Z" fill="#E5B57C"/>
<path d="M7.17662 7.24731H6.28679V8.13715H7.17662V7.24731Z" fill="#E5B57C"/>
<path d="M7.17662 6.35791H6.28679V7.24775H7.17662V6.35791Z" fill="#8B9CD1"/>
<path d="M7.17662 5.46802H6.28679V6.35785H7.17662V5.46802Z" fill="#8B9CD1"/>
<path d="M7.17662 4.55859H6.28679V5.44842H7.17662V4.55859Z" fill="#8B9CD1"/>
<path d="M7.17662 3.66919H6.28679V4.55903H7.17662V3.66919Z" fill="#8B9CD1"/>
<path d="M7.17662 2.77905H6.28679V3.66889H7.17662V2.77905Z" fill="#8B9CD1"/>
<path d="M7.17662 1.87012H6.28679V2.75995H7.17662V1.87012Z" fill="#774017"/>
<path d="M7.17662 0.980225H6.28679V1.87005H7.17662V0.980225Z" fill="#9B5E2C"/>
<path d="M7.17662 0.090332H6.28679V0.980168H7.17662V0.090332Z" fill="#9B5E2C"/>
<path d="M8.06638 22.51H7.17655V23.3998H8.06638V22.51Z" fill="#933725"/>
<path d="M8.06638 21.6011H7.17655V22.4909H8.06638V21.6011Z" fill="#B2683F"/>
<path d="M8.06638 20.7112H7.17655V21.601H8.06638V20.7112Z" fill="#DB8F5D"/>
<path d="M8.06638 19.802H7.17655V20.6918H8.06638V19.802Z" fill="#C18C52"/>
<path d="M8.06638 18.9121H7.17655V19.8019H8.06638V18.9121Z" fill="#C18C52"/>
<path d="M8.06638 18.0222H7.17655V18.9121H8.06638V18.0222Z" fill="#C18C52"/>
<path d="M8.06638 17.1133H7.17655V18.0031H8.06638V17.1133Z" fill="#C18C52"/>
<path d="M8.06638 16.2229H7.17655V17.1127H8.06638V16.2229Z" fill="#C18C52"/>
<path d="M8.06638 15.3335H7.17655V16.2233H8.06638V15.3335Z" fill="#C18C52"/>
<path d="M8.06638 14.4243H7.17655V15.3141H8.06638V14.4243Z" fill="#C18C52"/>
<path d="M8.06638 13.5344H7.17655V14.4243H8.06638V13.5344Z" fill="#8B9CD1"/>
<path d="M8.06638 12.6445H7.17655V13.5344H8.06638V12.6445Z" fill="#8B9CD1"/>
<path d="M8.06638 11.7356H7.17655V12.6254H8.06638V11.7356Z" fill="#8B9CD1"/>
<path d="M8.06638 10.8452H7.17655V11.735H8.06638V10.8452Z" fill="#8B9CD1"/>
<path d="M8.06638 9.93652H7.17655V10.8264H8.06638V9.93652Z" fill="#8B9CD1"/>
<path d="M8.06638 9.04663H7.17655V9.93647H8.06638V9.04663Z" fill="#E5B57C"/>
<path d="M8.06638 8.15674H7.17655V9.04657H8.06638V8.15674Z" fill="#E5B57C"/>
<path d="M8.06638 7.24731H7.17655V8.13715H8.06638V7.24731Z" fill="#E5B57C"/>
<path d="M8.06638 6.35791H7.17655V7.24775H8.06638V6.35791Z" fill="#8B9CD1"/>
<path d="M8.06638 5.46802H7.17655V6.35785H8.06638V5.46802Z" fill="#8B9CD1"/>
<path d="M8.06638 4.55859H7.17655V5.44842H8.06638V4.55859Z" fill="#8B9CD1"/>
<path d="M8.06638 3.66919H7.17655V4.55903H8.06638V3.66919Z" fill="#8B9CD1"/>
<path d="M8.06638 2.77905H7.17655V3.66889H8.06638V2.77905Z" fill="#8B9CD1"/>
<path d="M8.06638 1.87012H7.17655V2.75995H8.06638V1.87012Z" fill="#933725"/>
<path d="M8.06638 0.980225H7.17655V1.87005H8.06638V0.980225Z" fill="#B2683F"/>
<path d="M8.06638 0.090332H7.17655V0.980168H8.06638V0.090332Z" fill="#B2683F"/>
<path d="M8.97561 22.51H8.08577V23.3998H8.97561V22.51Z" fill="#933725"/>
<path d="M8.97561 21.6011H8.08577V22.4909H8.97561V21.6011Z" fill="#B2683F"/>
<path d="M8.97561 20.7112H8.08577V21.601H8.97561V20.7112Z" fill="#DB8F5D"/>
<path d="M8.97561 19.802H8.08577V20.6918H8.97561V19.802Z" fill="#C18C52"/>
<path d="M8.97561 18.9121H8.08577V19.8019H8.97561V18.9121Z" fill="#C18C52"/>
<path d="M8.97561 18.0222H8.08577V18.9121H8.97561V18.0222Z" fill="#C18C52"/>
<path d="M8.97561 17.1133H8.08577V18.0031H8.97561V17.1133Z" fill="#C18C52"/>
<path d="M8.97561 16.2229H8.08577V17.1127H8.97561V16.2229Z" fill="#C18C52"/>
<path d="M8.97561 15.3335H8.08577V16.2233H8.97561V15.3335Z" fill="#C18C52"/>
<path d="M8.97561 14.4243H8.08577V15.3141H8.97561V14.4243Z" fill="#C18C52"/>
<path d="M8.97561 13.5344H8.08577V14.4243H8.97561V13.5344Z" fill="#8B9CD1"/>
<path d="M8.97561 12.6445H8.08577V13.5344H8.97561V12.6445Z" fill="#8B9CD1"/>
<path d="M8.97561 11.7356H8.08577V12.6254H8.97561V11.7356Z" fill="#8B9CD1"/>
<path d="M8.97561 10.8452H8.08577V11.735H8.97561V10.8452Z" fill="#8B9CD1"/>
<path d="M8.97561 9.93652H8.08577V10.8264H8.97561V9.93652Z" fill="#C18C52"/>
<path d="M8.97561 9.04663H8.08577V9.93647H8.97561V9.04663Z" fill="#E5B57C"/>
<path d="M8.97561 8.15674H8.08577V9.04657H8.97561V8.15674Z" fill="#E5B57C"/>
<path d="M8.97561 7.24731H8.08577V8.13715H8.97561V7.24731Z" fill="#E5B57C"/>
<path d="M8.97561 6.35791H8.08577V7.24775H8.97561V6.35791Z" fill="#8B9CD1"/>
<path d="M8.97561 5.46802H8.08577V6.35785H8.97561V5.46802Z" fill="#8B9CD1"/>
<path d="M8.97561 4.55859H8.08577V5.44842H8.97561V4.55859Z" fill="#8B9CD1"/>
<path d="M8.97561 3.66919H8.08577V4.55903H8.97561V3.66919Z" fill="#8B9CD1"/>
<path d="M8.97561 2.77905H8.08577V3.66889H8.97561V2.77905Z" fill="#8B9CD1"/>
<path d="M8.97561 1.87012H8.08577V2.75995H8.97561V1.87012Z" fill="#933725"/>
<path d="M8.97561 0.980225H8.08577V1.87005H8.97561V0.980225Z" fill="#B2683F"/>
<path d="M8.97561 0.090332H8.08577V0.980168H8.97561V0.090332Z" fill="#DB8F5D"/>
<path d="M9.86547 22.51H8.97564V23.3998H9.86547V22.51Z" fill="#933725"/>
<path d="M9.86547 21.6011H8.97564V22.4909H9.86547V21.6011Z" fill="#B2683F"/>
<path d="M9.86547 20.7112H8.97564V21.601H9.86547V20.7112Z" fill="#DB8F5D"/>
<path d="M9.86547 19.802H8.97564V20.6918H9.86547V19.802Z" fill="#E5B57C"/>
<path d="M9.86547 18.9121H8.97564V19.8019H9.86547V18.9121Z" fill="#E5B57C"/>
<path d="M9.86547 18.0222H8.97564V18.9121H9.86547V18.0222Z" fill="#E5B57C"/>
<path d="M9.86547 17.1133H8.97564V18.0031H9.86547V17.1133Z" fill="#E5B57C"/>
<path d="M9.86547 16.2229H8.97564V17.1127H9.86547V16.2229Z" fill="#E5B57C"/>
<path d="M9.86547 15.3335H8.97564V16.2233H9.86547V15.3335Z" fill="#E5B57C"/>
<path d="M9.86547 14.4243H8.97564V15.3141H9.86547V14.4243Z" fill="#C18C52"/>
<path d="M9.86547 13.5344H8.97564V14.4243H9.86547V13.5344Z" fill="#8B9CD1"/>
<path d="M9.86547 12.6445H8.97564V13.5344H9.86547V12.6445Z" fill="#8B9CD1"/>
<path d="M9.86547 11.7356H8.97564V12.6254H9.86547V11.7356Z" fill="#8B9CD1"/>
<path d="M9.86547 10.8452H8.97564V11.735H9.86547V10.8452Z" fill="#C18C52"/>
<path d="M9.86547 9.93652H8.97564V10.8264H9.86547V9.93652Z" fill="#C18C52"/>
<path d="M9.86547 9.04663H8.97564V9.93647H9.86547V9.04663Z" fill="#E5B57C"/>
<path d="M9.86547 8.15674H8.97564V9.04657H9.86547V8.15674Z" fill="#E5B57C"/>
<path d="M9.86547 7.24731H8.97564V8.13715H9.86547V7.24731Z" fill="#E5B57C"/>
<path d="M9.86547 6.35791H8.97564V7.24775H9.86547V6.35791Z" fill="#AABBE8"/>
<path d="M9.86547 5.46802H8.97564V6.35785H9.86547V5.46802Z" fill="#AABBE8"/>
<path d="M9.86547 4.55859H8.97564V5.44842H9.86547V4.55859Z" fill="#AABBE8"/>
<path d="M9.86547 3.66919H8.97564V4.55903H9.86547V3.66919Z" fill="#8B9CD1"/>
<path d="M9.86547 2.77905H8.97564V3.66889H9.86547V2.77905Z" fill="#8B9CD1"/>
<path d="M9.86547 1.87012H8.97564V2.75995H9.86547V1.87012Z" fill="#933725"/>
<path d="M9.86547 0.980225H8.97564V1.87005H9.86547V0.980225Z" fill="#B2683F"/>
<path d="M9.86547 0.090332H8.97564V0.980168H9.86547V0.090332Z" fill="#DB8F5D"/>
<path d="M10.7553 22.51H9.86545V23.3998H10.7553V22.51Z" fill="#933725"/>
<path d="M10.7553 21.6011H9.86545V22.4909H10.7553V21.6011Z" fill="#B2683F"/>
<path d="M10.7553 20.7112H9.86545V21.601H10.7553V20.7112Z" fill="#DB8F5D"/>
<path d="M10.7553 19.802H9.86545V20.6918H10.7553V19.802Z" fill="#E5B57C"/>
<path d="M10.7553 18.9121H9.86545V19.8019H10.7553V18.9121Z" fill="#E5B57C"/>
<path d="M10.7553 18.0222H9.86545V18.9121H10.7553V18.0222Z" fill="#E5B57C"/>
<path d="M10.7553 17.1133H9.86545V18.0031H10.7553V17.1133Z" fill="#E5B57C"/>
<path d="M10.7553 16.2229H9.86545V17.1127H10.7553V16.2229Z" fill="#E5B57C"/>
<path d="M10.7553 15.3335H9.86545V16.2233H10.7553V15.3335Z" fill="#E5B57C"/>
<path d="M10.7553 14.4243H9.86545V15.3141H10.7553V14.4243Z" fill="#C18C52"/>
<path d="M10.7553 13.5344H9.86545V14.4243H10.7553V13.5344Z" fill="#C18C52"/>
<path d="M10.7553 12.6445H9.86545V13.5344H10.7553V12.6445Z" fill="#C18C52"/>
<path d="M10.7553 11.7356H9.86545V12.6254H10.7553V11.7356Z" fill="#C18C52"/>
<path d="M10.7553 10.8452H9.86545V11.735H10.7553V10.8452Z" fill="#E5B57C"/>
<path d="M10.7553 9.93652H9.86545V10.8264H10.7553V9.93652Z" fill="#E5B57C"/>
<path d="M10.7553 9.04663H9.86545V9.93647H10.7553V9.04663Z" fill="#E5B57C"/>
<path d="M10.7553 8.15674H9.86545V9.04657H10.7553V8.15674Z" fill="#E5B57C"/>
<path d="M10.7553 7.24731H9.86545V8.13715H10.7553V7.24731Z" fill="#E5B57C"/>
<path d="M10.7553 6.35791H9.86545V7.24775H10.7553V6.35791Z" fill="#AABBE8"/>
<path d="M10.7553 5.46802H9.86545V6.35785H10.7553V5.46802Z" fill="#AABBE8"/>
<path d="M10.7553 4.55859H9.86545V5.44842H10.7553V4.55859Z" fill="#AABBE8"/>
<path d="M10.7553 3.66919H9.86545V4.55903H10.7553V3.66919Z" fill="#8B9CD1"/>
<path d="M10.7553 2.77905H9.86545V3.66889H10.7553V2.77905Z" fill="#8B9CD1"/>
<path d="M10.7553 1.87012H9.86545V2.75995H10.7553V1.87012Z" fill="#933725"/>
<path d="M10.7553 0.980225H9.86545V1.87005H10.7553V0.980225Z" fill="#B2683F"/>
<path d="M10.7553 0.090332H9.86545V0.980168H10.7553V0.090332Z" fill="#DB8F5D"/>
<path d="M11.6645 22.51H10.7746V23.3998H11.6645V22.51Z" fill="#933725"/>
<path d="M11.6645 21.6011H10.7746V22.4909H11.6645V21.6011Z" fill="#B2683F"/>
<path d="M11.6645 20.7112H10.7746V21.601H11.6645V20.7112Z" fill="#DB8F5D"/>
<path d="M11.6645 19.802H10.7746V20.6918H11.6645V19.802Z" fill="#FFD4A9"/>
<path d="M11.6645 18.9121H10.7746V19.8019H11.6645V18.9121Z" fill="#FFD4A9"/>
<path d="M11.6645 18.0222H10.7746V18.9121H11.6645V18.0222Z" fill="#FFD4A9"/>
<path d="M11.6645 17.1133H10.7746V18.0031H11.6645V17.1133Z" fill="#FFD4A9"/>
<path d="M11.6645 16.2229H10.7746V17.1127H11.6645V16.2229Z" fill="#FFD4A9"/>
<path d="M11.6645 15.3335H10.7746V16.2233H11.6645V15.3335Z" fill="#FFD4A9"/>
<path d="M11.6645 14.4243H10.7746V15.3141H11.6645V14.4243Z" fill="#FFD4A9"/>
<path d="M11.6645 13.5344H10.7746V14.4243H11.6645V13.5344Z" fill="#FFD4A9"/>
<path d="M11.6645 12.6445H10.7746V13.5344H11.6645V12.6445Z" fill="#FFD4A9"/>
<path d="M11.6645 11.7356H10.7746V12.6254H11.6645V11.7356Z" fill="#FFD4A9"/>
<path d="M11.6645 10.8452H10.7746V11.735H11.6645V10.8452Z" fill="#FFD4A9"/>
<path d="M11.6645 9.93652H10.7746V10.8264H11.6645V9.93652Z" fill="#FFD4A9"/>
<path d="M11.6645 9.04663H10.7746V9.93647H11.6645V9.04663Z" fill="#FFD4A9"/>
<path d="M11.6645 8.15674H10.7746V9.04657H11.6645V8.15674Z" fill="#FFD4A9"/>
<path d="M11.6645 7.24731H10.7746V8.13715H11.6645V7.24731Z" fill="#FFD4A9"/>
<path d="M11.6645 6.35791H10.7746V7.24775H11.6645V6.35791Z" fill="#AABBE8"/>
<path d="M11.6645 5.46802H10.7746V6.35785H11.6645V5.46802Z" fill="#AABBE8"/>
<path d="M11.6645 4.55859H10.7746V5.44842H11.6645V4.55859Z" fill="#AABBE8"/>
<path d="M11.6645 3.66919H10.7746V4.55903H11.6645V3.66919Z" fill="#8B9CD1"/>
<path d="M11.6645 2.77905H10.7746V3.66889H11.6645V2.77905Z" fill="#8B9CD1"/>
<path d="M11.6645 1.87012H10.7746V2.75995H11.6645V1.87012Z" fill="#933725"/>
<path d="M11.6645 0.980225H10.7746V1.87005H11.6645V0.980225Z" fill="#B2683F"/>
<path d="M11.6645 0.090332H10.7746V0.980168H11.6645V0.090332Z" fill="#DB8F5D"/>
<path d="M12.5543 22.51H11.6644V23.3998H12.5543V22.51Z" fill="#933725"/>
<path d="M12.5543 21.6011H11.6644V22.4909H12.5543V21.6011Z" fill="#B2683F"/>
<path d="M12.5543 20.7112H11.6644V21.601H12.5543V20.7112Z" fill="#DB8F5D"/>
<path d="M12.5543 19.802H11.6644V20.6918H12.5543V19.802Z" fill="#FFD4A9"/>
<path d="M12.5543 18.9121H11.6644V19.8019H12.5543V18.9121Z" fill="#FFD4A9"/>
<path d="M12.5543 18.0222H11.6644V18.9121H12.5543V18.0222Z" fill="#E5B57C"/>
<path d="M12.5543 17.1133H11.6644V18.0031H12.5543V17.1133Z" fill="#E5B57C"/>
<path d="M12.5543 16.2229H11.6644V17.1127H12.5543V16.2229Z" fill="#E5B57C"/>
<path d="M12.5543 15.3335H11.6644V16.2233H12.5543V15.3335Z" fill="#E5B57C"/>
<path d="M12.5543 14.4243H11.6644V15.3141H12.5543V14.4243Z" fill="#E5B57C"/>
<path d="M12.5543 13.5344H11.6644V14.4243H12.5543V13.5344Z" fill="#AABBE8"/>
<path d="M12.5543 12.6445H11.6644V13.5344H12.5543V12.6445Z" fill="#8B9CD1"/>
<path d="M12.5543 11.7356H11.6644V12.6254H12.5543V11.7356Z" fill="#8B9CD1"/>
<path d="M12.5543 10.8452H11.6644V11.735H12.5543V10.8452Z" fill="#E5B57C"/>
<path d="M12.5543 9.93652H11.6644V10.8264H12.5543V9.93652Z" fill="#E5B57C"/>
<path d="M12.5543 9.04663H11.6644V9.93647H12.5543V9.04663Z" fill="#E5B57C"/>
<path d="M12.5543 8.15674H11.6644V9.04657H12.5543V8.15674Z" fill="#E5B57C"/>
<path d="M12.5543 7.24731H11.6644V8.13715H12.5543V7.24731Z" fill="#E5B57C"/>
<path d="M12.5543 6.35791H11.6644V7.24775H12.5543V6.35791Z" fill="#AABBE8"/>
<path d="M12.5543 5.46802H11.6644V6.35785H12.5543V5.46802Z" fill="#AABBE8"/>
<path d="M12.5543 4.55859H11.6644V5.44842H12.5543V4.55859Z" fill="#AABBE8"/>
<path d="M12.5543 3.66919H11.6644V4.55903H12.5543V3.66919Z" fill="#8B9CD1"/>
<path d="M12.5543 2.77905H11.6644V3.66889H12.5543V2.77905Z" fill="#8B9CD1"/>
<path d="M12.5543 1.87012H11.6644V2.75995H12.5543V1.87012Z" fill="#933725"/>
<path d="M12.5543 0.980225H11.6644V1.87005H12.5543V0.980225Z" fill="#B2683F"/>
<path d="M12.5543 0.090332H11.6644V0.980168H12.5543V0.090332Z" fill="#DB8F5D"/>
<path d="M13.4441 22.51H12.5543V23.3998H13.4441V22.51Z" fill="#933725"/>
<path d="M13.4441 21.6011H12.5543V22.4909H13.4441V21.6011Z" fill="#B2683F"/>
<path d="M13.4441 20.7112H12.5543V21.601H13.4441V20.7112Z" fill="#DB8F5D"/>
<path d="M13.4441 19.802H12.5543V20.6918H13.4441V19.802Z" fill="#E5B57C"/>
<path d="M13.4441 18.9121H12.5543V19.8019H13.4441V18.9121Z" fill="#E5B57C"/>
<path d="M13.4441 18.0222H12.5543V18.9121H13.4441V18.0222Z" fill="#E5B57C"/>
<path d="M13.4441 17.1133H12.5543V18.0031H13.4441V17.1133Z" fill="#E5B57C"/>
<path d="M13.4441 16.2229H12.5543V17.1127H13.4441V16.2229Z" fill="#E5B57C"/>
<path d="M13.4441 15.3335H12.5543V16.2233H13.4441V15.3335Z" fill="#E5B57C"/>
<path d="M13.4441 14.4243H12.5543V15.3141H13.4441V14.4243Z" fill="#E5B57C"/>
<path d="M13.4441 13.5344H12.5543V14.4243H13.4441V13.5344Z" fill="#AABBE8"/>
<path d="M13.4441 12.6445H12.5543V13.5344H13.4441V12.6445Z" fill="#8B9CD1"/>
<path d="M13.4441 11.7356H12.5543V12.6254H13.4441V11.7356Z" fill="#8B9CD1"/>
<path d="M13.4441 10.8452H12.5543V11.735H13.4441V10.8452Z" fill="#C18C52"/>
<path d="M13.4441 9.93652H12.5543V10.8264H13.4441V9.93652Z" fill="#C18C52"/>
<path d="M13.4441 9.04663H12.5543V9.93647H13.4441V9.04663Z" fill="#E5B57C"/>
<path d="M13.4441 8.15674H12.5543V9.04657H13.4441V8.15674Z" fill="#E5B57C"/>
<path d="M13.4441 7.24731H12.5543V8.13715H13.4441V7.24731Z" fill="#E5B57C"/>
<path d="M13.4441 6.35791H12.5543V7.24775H13.4441V6.35791Z" fill="#AABBE8"/>
<path d="M13.4441 5.46802H12.5543V6.35785H13.4441V5.46802Z" fill="#AABBE8"/>
<path d="M13.4441 4.55859H12.5543V5.44842H13.4441V4.55859Z" fill="#AABBE8"/>
<path d="M13.4441 3.66919H12.5543V4.55903H13.4441V3.66919Z" fill="#8B9CD1"/>
<path d="M13.4441 2.77905H12.5543V3.66889H13.4441V2.77905Z" fill="#8B9CD1"/>
<path d="M13.4441 1.87012H12.5543V2.75995H13.4441V1.87012Z" fill="#933725"/>
<path d="M13.4441 0.980225H12.5543V1.87005H13.4441V0.980225Z" fill="#B2683F"/>
<path d="M13.4441 0.090332H12.5543V0.980168H13.4441V0.090332Z" fill="#DB8F5D"/>
<path d="M14.3533 22.51H13.4634V23.3998H14.3533V22.51Z" fill="#933725"/>
<path d="M14.3533 21.6011H13.4634V22.4909H14.3533V21.6011Z" fill="#B2683F"/>
<path d="M14.3533 20.7112H13.4634V21.601H14.3533V20.7112Z" fill="#DB8F5D"/>
<path d="M14.3533 19.802H13.4634V20.6918H14.3533V19.802Z" fill="#E5B57C"/>
<path d="M14.3533 18.9121H13.4634V19.8019H14.3533V18.9121Z" fill="#E5B57C"/>
<path d="M14.3533 18.0222H13.4634V18.9121H14.3533V18.0222Z" fill="#FFD4A9"/>
<path d="M14.3533 17.1133H13.4634V18.0031H14.3533V17.1133Z" fill="#FFD4A9"/>
<path d="M14.3533 16.2229H13.4634V17.1127H14.3533V16.2229Z" fill="#FFD4A9"/>
<path d="M14.3533 15.3335H13.4634V16.2233H14.3533V15.3335Z" fill="#FFD4A9"/>
<path d="M14.3533 14.4243H13.4634V15.3141H14.3533V14.4243Z" fill="#AABBE8"/>
<path d="M14.3533 13.5344H13.4634V14.4243H14.3533V13.5344Z" fill="#8B9CD1"/>
<path d="M14.3533 12.6445H13.4634V13.5344H14.3533V12.6445Z" fill="#8B9CD1"/>
<path d="M14.3533 11.7356H13.4634V12.6254H14.3533V11.7356Z" fill="#8B9CD1"/>
<path d="M14.3533 10.8452H13.4634V11.735H14.3533V10.8452Z" fill="#8B9CD1"/>
<path d="M14.3533 9.93652H13.4634V10.8264H14.3533V9.93652Z" fill="#C18C52"/>
<path d="M14.3533 9.04663H13.4634V9.93647H14.3533V9.04663Z" fill="#FFD4A9"/>
<path d="M14.3533 8.15674H13.4634V9.04657H14.3533V8.15674Z" fill="#FFD4A9"/>
<path d="M14.3533 7.24731H13.4634V8.13715H14.3533V7.24731Z" fill="#FFD4A9"/>
<path d="M14.3533 6.35791H13.4634V7.24775H14.3533V6.35791Z" fill="#C7D5F2"/>
<path d="M14.3533 5.46802H13.4634V6.35785H14.3533V5.46802Z" fill="#C7D5F2"/>
<path d="M14.3533 4.55859H13.4634V5.44842H14.3533V4.55859Z" fill="#C7D5F2"/>
<path d="M14.3533 3.66919H13.4634V4.55903H14.3533V3.66919Z" fill="#8B9CD1"/>
<path d="M14.3533 2.77905H13.4634V3.66889H14.3533V2.77905Z" fill="#8B9CD1"/>
<path d="M14.3533 1.87012H13.4634V2.75995H14.3533V1.87012Z" fill="#933725"/>
<path d="M14.3533 0.980225H13.4634V1.87005H14.3533V0.980225Z" fill="#B2683F"/>
<path d="M14.3533 0.090332H13.4634V0.980168H14.3533V0.090332Z" fill="#DB8F5D"/>
<path d="M15.2431 22.51H14.3533V23.3998H15.2431V22.51Z" fill="#933725"/>
<path d="M15.2431 21.6011H14.3533V22.4909H15.2431V21.6011Z" fill="#B2683F"/>
<path d="M15.2431 20.7112H14.3533V21.601H15.2431V20.7112Z" fill="#DB8F5D"/>
<path d="M15.2431 19.802H14.3533V20.6918H15.2431V19.802Z" fill="#C18C52"/>
<path d="M15.2431 18.9121H14.3533V19.8019H15.2431V18.9121Z" fill="#C18C52"/>
<path d="M15.2431 18.0222H14.3533V18.9121H15.2431V18.0222Z" fill="#C18C52"/>
<path d="M15.2431 17.1133H14.3533V18.0031H15.2431V17.1133Z" fill="#C18C52"/>
<path d="M15.2431 16.2229H14.3533V17.1127H15.2431V16.2229Z" fill="#E5B57C"/>
<path d="M15.2431 15.3335H14.3533V16.2233H15.2431V15.3335Z" fill="#E5B57C"/>
<path d="M15.2431 14.4243H14.3533V15.3141H15.2431V14.4243Z" fill="#AABBE8"/>
<path d="M15.2431 13.5344H14.3533V14.4243H15.2431V13.5344Z" fill="#8B9CD1"/>
<path d="M15.2431 12.6445H14.3533V13.5344H15.2431V12.6445Z" fill="#8B9CD1"/>
<path d="M15.2431 11.7356H14.3533V12.6254H15.2431V11.7356Z" fill="#8B9CD1"/>
<path d="M15.2431 10.8452H14.3533V11.735H15.2431V10.8452Z" fill="#8B9CD1"/>
<path d="M15.2431 9.93652H14.3533V10.8264H15.2431V9.93652Z" fill="#8B9CD1"/>
<path d="M15.2431 9.04663H14.3533V9.93647H15.2431V9.04663Z" fill="#C18C52"/>
<path d="M15.2431 8.15674H14.3533V9.04657H15.2431V8.15674Z" fill="#E5B57C"/>
<path d="M15.2431 7.24731H14.3533V8.13715H15.2431V7.24731Z" fill="#E5B57C"/>
<path d="M15.2431 6.35791H14.3533V7.24775H15.2431V6.35791Z" fill="#C7D5F2"/>
<path d="M15.2431 5.46802H14.3533V6.35785H15.2431V5.46802Z" fill="#C7D5F2"/>
<path d="M15.2431 4.55859H14.3533V5.44842H15.2431V4.55859Z" fill="#C7D5F2"/>
<path d="M15.2431 3.66919H14.3533V4.55903H15.2431V3.66919Z" fill="#8B9CD1"/>
<path d="M15.2431 2.77905H14.3533V3.66889H15.2431V2.77905Z" fill="#8B9CD1"/>
<path d="M15.2431 1.87012H14.3533V2.75995H15.2431V1.87012Z" fill="#933725"/>
<path d="M15.2431 0.980225H14.3533V1.87005H15.2431V0.980225Z" fill="#B2683F"/>
<path d="M15.2431 0.090332H14.3533V0.980168H15.2431V0.090332Z" fill="#DB8F5D"/>
<path d="M16.1329 22.51H15.2431V23.3998H16.1329V22.51Z" fill="#933725"/>
<path d="M16.1329 21.6011H15.2431V22.4909H16.1329V21.6011Z" fill="#B2683F"/>
<path d="M16.1329 20.7112H15.2431V21.601H16.1329V20.7112Z" fill="#DB8F5D"/>
<path d="M16.1329 19.802H15.2431V20.6918H16.1329V19.802Z" fill="#C18C52"/>
<path d="M16.1329 18.9121H15.2431V19.8019H16.1329V18.9121Z" fill="#C18C52"/>
<path d="M16.1329 18.0222H15.2431V18.9121H16.1329V18.0222Z" fill="#C18C52"/>
<path d="M16.1329 17.1133H15.2431V18.0031H16.1329V17.1133Z" fill="#C18C52"/>
<path d="M16.1329 16.2229H15.2431V17.1127H16.1329V16.2229Z" fill="#C18C52"/>
<path d="M16.1329 15.3335H15.2431V16.2233H16.1329V15.3335Z" fill="#AABBE8"/>
<path d="M16.1329 14.4243H15.2431V15.3141H16.1329V14.4243Z" fill="#8B9CD1"/>
<path d="M16.1329 13.5344H15.2431V14.4243H16.1329V13.5344Z" fill="#8B9CD1"/>
<path d="M16.1329 12.6445H15.2431V13.5344H16.1329V12.6445Z" fill="#49568E"/>
<path d="M16.1329 11.7356H15.2431V12.6254H16.1329V11.7356Z" fill="#49568E"/>
<path d="M16.1329 10.8452H15.2431V11.735H16.1329V10.8452Z" fill="#49568E"/>
<path d="M16.1329 9.93652H15.2431V10.8264H16.1329V9.93652Z" fill="#8B9CD1"/>
<path d="M16.1329 9.04663H15.2431V9.93647H16.1329V9.04663Z" fill="#8B9CD1"/>
<path d="M16.1329 8.15674H15.2431V9.04657H16.1329V8.15674Z" fill="#E5B57C"/>
<path d="M16.1329 7.24731H15.2431V8.13715H16.1329V7.24731Z" fill="#E5B57C"/>
<path d="M16.1329 6.35791H15.2431V7.24775H16.1329V6.35791Z" fill="#AABBE8"/>
<path d="M16.1329 5.46802H15.2431V6.35785H16.1329V5.46802Z" fill="#AABBE8"/>
<path d="M16.1329 4.55859H15.2431V5.44842H16.1329V4.55859Z" fill="#AABBE8"/>
<path d="M16.1329 3.66919H15.2431V4.55903H16.1329V3.66919Z" fill="#8B9CD1"/>
<path d="M16.1329 2.77905H15.2431V3.66889H16.1329V2.77905Z" fill="#8B9CD1"/>
<path d="M16.1329 1.87012H15.2431V2.75995H16.1329V1.87012Z" fill="#933725"/>
<path d="M16.1329 0.980225H15.2431V1.87005H16.1329V0.980225Z" fill="#B2683F"/>
<path d="M16.1329 0.090332H15.2431V0.980168H16.1329V0.090332Z" fill="#DB8F5D"/>
<path d="M17.0422 22.51H16.1524V23.3998H17.0422V22.51Z" fill="#933725"/>
<path d="M17.0422 21.6011H16.1524V22.4909H17.0422V21.6011Z" fill="#B2683F"/>
<path d="M17.0422 20.7112H16.1524V21.601H17.0422V20.7112Z" fill="#DB8F5D"/>
<path d="M17.0422 19.802H16.1524V20.6918H17.0422V19.802Z" fill="#C18C52"/>
<path d="M17.0422 18.9121H16.1524V19.8019H17.0422V18.9121Z" fill="#C18C52"/>
<path d="M17.0422 18.0222H16.1524V18.9121H17.0422V18.0222Z" fill="#C18C52"/>
<path d="M17.0422 17.1133H16.1524V18.0031H17.0422V17.1133Z" fill="#C18C52"/>
<path d="M17.0422 16.2229H16.1524V17.1127H17.0422V16.2229Z" fill="#AABBE8"/>
<path d="M17.0422 15.3335H16.1524V16.2233H17.0422V15.3335Z" fill="#8B9CD1"/>
<path d="M17.0422 14.4243H16.1524V15.3141H17.0422V14.4243Z" fill="#8B9CD1"/>
<path d="M17.0422 13.5344H16.1524V14.4243H17.0422V13.5344Z" fill="#49568E"/>
<path d="M17.0422 12.6445H16.1524V13.5344H17.0422V12.6445Z" fill="#49568E"/>
<path d="M17.0422 9.93652H16.1524V10.8264H17.0422V9.93652Z" fill="#49568E"/>
<path d="M17.0422 9.04663H16.1524V9.93647H17.0422V9.04663Z" fill="#8B9CD1"/>
<path d="M17.0422 8.15674H16.1524V9.04657H17.0422V8.15674Z" fill="#8B9CD1"/>
<path d="M17.0422 7.24731H16.1524V8.13715H17.0422V7.24731Z" fill="#8B9CD1"/>
<path d="M17.0422 6.35791H16.1524V7.24775H17.0422V6.35791Z" fill="#AABBE8"/>
<path d="M17.0422 5.46802H16.1524V6.35785H17.0422V5.46802Z" fill="#AABBE8"/>
<path d="M17.0422 4.55859H16.1524V5.44842H17.0422V4.55859Z" fill="#AABBE8"/>
<path d="M17.0422 3.66919H16.1524V4.55903H17.0422V3.66919Z" fill="#8B9CD1"/>
<path d="M17.0422 2.77905H16.1524V3.66889H17.0422V2.77905Z" fill="#8B9CD1"/>
<path d="M17.0422 1.87012H16.1524V2.75995H17.0422V1.87012Z" fill="#933725"/>
<path d="M17.0422 0.980225H16.1524V1.87005H17.0422V0.980225Z" fill="#B2683F"/>
<path d="M17.0422 0.090332H16.1524V0.980168H17.0422V0.090332Z" fill="#DB8F5D"/>
<path d="M17.9319 22.51H17.0421V23.3998H17.9319V22.51Z" fill="#933725"/>
<path d="M17.9319 21.6011H17.0421V22.4909H17.9319V21.6011Z" fill="#B2683F"/>
<path d="M17.9319 20.7112H17.0421V21.601H17.9319V20.7112Z" fill="#B2683F"/>
<path d="M17.9319 19.802H17.0421V20.6918H17.9319V19.802Z" fill="#C18C52"/>
<path d="M17.9319 18.9121H17.0421V19.8019H17.9319V18.9121Z" fill="#C18C52"/>
<path d="M17.9319 18.0222H17.0421V18.9121H17.9319V18.0222Z" fill="#C18C52"/>
<path d="M17.9319 17.1133H17.0421V18.0031H17.9319V17.1133Z" fill="#AABBE8"/>
<path d="M17.9319 16.2229H17.0421V17.1127H17.9319V16.2229Z" fill="#8B9CD1"/>
<path d="M17.9319 15.3335H17.0421V16.2233H17.9319V15.3335Z" fill="#8B9CD1"/>
<path d="M17.9319 14.4243H17.0421V15.3141H17.9319V14.4243Z" fill="#8B9CD1"/>
<path d="M17.9319 13.5344H17.0421V14.4243H17.9319V13.5344Z" fill="#49568E"/>
<path d="M17.9319 12.6445H17.0421V13.5344H17.9319V12.6445Z" fill="#49568E"/>
<path d="M17.9319 9.93652H17.0421V10.8264H17.9319V9.93652Z" fill="#49568E"/>
<path d="M17.9319 9.04663H17.0421V9.93647H17.9319V9.04663Z" fill="#49568E"/>
<path d="M17.9319 8.15674H17.0421V9.04657H17.9319V8.15674Z" fill="#8B9CD1"/>
<path d="M17.9319 7.24731H17.0421V8.13715H17.9319V7.24731Z" fill="#8B9CD1"/>
<path d="M17.9319 6.35791H17.0421V7.24775H17.9319V6.35791Z" fill="#AABBE8"/>
<path d="M17.9319 5.46802H17.0421V6.35785H17.9319V5.46802Z" fill="#AABBE8"/>
<path d="M17.9319 4.55859H17.0421V5.44842H17.9319V4.55859Z" fill="#AABBE8"/>
<path d="M17.9319 3.66919H17.0421V4.55903H17.9319V3.66919Z" fill="#8B9CD1"/>
<path d="M17.9319 2.77905H17.0421V3.66889H17.9319V2.77905Z" fill="#8B9CD1"/>
<path d="M17.9319 1.87012H17.0421V2.75995H17.9319V1.87012Z" fill="#933725"/>
<path d="M17.9319 0.980225H17.0421V1.87005H17.9319V0.980225Z" fill="#B2683F"/>
<path d="M17.9319 0.090332H17.0421V0.980168H17.9319V0.090332Z" fill="#B2683F"/>
<path d="M18.8218 22.51H17.932V23.3998H18.8218V22.51Z" fill="#774017"/>
<path d="M18.8218 21.6011H17.932V22.4909H18.8218V21.6011Z" fill="#9B5E2C"/>
<path d="M18.8218 20.7112H17.932V21.601H18.8218V20.7112Z" fill="#9B5E2C"/>
<path d="M18.8218 19.802H17.932V20.6918H18.8218V19.802Z" fill="#8B9CD1"/>
<path d="M18.8218 18.9121H17.932V19.8019H18.8218V18.9121Z" fill="#8B9CD1"/>
<path d="M18.8218 18.0222H17.932V18.9121H18.8218V18.0222Z" fill="#8B9CD1"/>
<path d="M18.8218 17.1133H17.932V18.0031H18.8218V17.1133Z" fill="#8B9CD1"/>
<path d="M18.8218 16.2229H17.932V17.1127H18.8218V16.2229Z" fill="#8B9CD1"/>
<path d="M18.8218 15.3335H17.932V16.2233H18.8218V15.3335Z" fill="#49568E"/>
<path d="M18.8218 14.4243H17.932V15.3141H18.8218V14.4243Z" fill="#49568E"/>
<path d="M18.8218 8.15674H17.932V9.04657H18.8218V8.15674Z" fill="#49568E"/>
<path d="M18.8218 7.24731H17.932V8.13715H18.8218V7.24731Z" fill="#8B9CD1"/>
<path d="M18.8218 6.35791H17.932V7.24775H18.8218V6.35791Z" fill="#8B9CD1"/>
<path d="M18.8218 5.46802H17.932V6.35785H18.8218V5.46802Z" fill="#8B9CD1"/>
<path d="M18.8218 4.55859H17.932V5.44842H18.8218V4.55859Z" fill="#8B9CD1"/>
<path d="M18.8218 3.66919H17.932V4.55903H18.8218V3.66919Z" fill="#8B9CD1"/>
<path d="M18.8218 2.77905H17.932V3.66889H18.8218V2.77905Z" fill="#8B9CD1"/>
<path d="M18.8218 1.87012H17.932V2.75995H18.8218V1.87012Z" fill="#774017"/>
<path d="M18.8218 0.980225H17.932V1.87005H18.8218V0.980225Z" fill="#9B5E2C"/>
<path d="M18.8218 0.090332H17.932V0.980168H18.8218V0.090332Z" fill="#9B5E2C"/>
<path d="M19.731 22.51H18.8412V23.3998H19.731V22.51Z" fill="#774017"/>
<path d="M19.731 21.6011H18.8412V22.4909H19.731V21.6011Z" fill="#9B5E2C"/>
<path d="M19.731 20.7112H18.8412V21.601H19.731V20.7112Z" fill="#9B5E2C"/>
<path d="M19.731 19.802H18.8412V20.6918H19.731V19.802Z" fill="#8B9CD1"/>
<path d="M19.731 18.9121H18.8412V19.8019H19.731V18.9121Z" fill="#8B9CD1"/>
<path d="M19.731 18.0222H18.8412V18.9121H19.731V18.0222Z" fill="#8B9CD1"/>
<path d="M19.731 17.1133H18.8412V18.0031H19.731V17.1133Z" fill="#8B9CD1"/>
<path d="M19.731 16.2229H18.8412V17.1127H19.731V16.2229Z" fill="#8B9CD1"/>
<path d="M19.731 15.3335H18.8412V16.2233H19.731V15.3335Z" fill="#49568E"/>
<path d="M19.731 14.4243H18.8412V15.3141H19.731V14.4243Z" fill="#49568E"/>
<path d="M19.731 8.15674H18.8412V9.04657H19.731V8.15674Z" fill="#49568E"/>
<path d="M19.731 7.24731H18.8412V8.13715H19.731V7.24731Z" fill="#49568E"/>
<path d="M19.731 6.35791H18.8412V7.24775H19.731V6.35791Z" fill="#8B9CD1"/>
<path d="M19.731 5.46802H18.8412V6.35785H19.731V5.46802Z" fill="#8B9CD1"/>
<path d="M19.731 4.55859H18.8412V5.44842H19.731V4.55859Z" fill="#8B9CD1"/>
<path d="M19.731 3.66919H18.8412V4.55903H19.731V3.66919Z" fill="#8B9CD1"/>
<path d="M19.731 2.77905H18.8412V3.66889H19.731V2.77905Z" fill="#8B9CD1"/>
<path d="M19.731 1.87012H18.8412V2.75995H19.731V1.87012Z" fill="#774017"/>
<path d="M19.731 0.980225H18.8412V1.87005H19.731V0.980225Z" fill="#9B5E2C"/>
<path d="M19.731 0.090332H18.8412V0.980168H19.731V0.090332Z" fill="#9B5E2C"/>
<path d="M20.6209 22.51H19.7311V23.3998H20.6209V22.51Z" fill="#774017"/>
<path d="M20.6209 21.6011H19.7311V22.4909H20.6209V21.6011Z" fill="#9B5E2C"/>
<path d="M20.6209 20.7112H19.7311V21.601H20.6209V20.7112Z" fill="#9B5E2C"/>
<path d="M20.6209 19.802H19.7311V20.6918H20.6209V19.802Z" fill="#49568E"/>
<path d="M20.6209 18.9121H19.7311V19.8019H20.6209V18.9121Z" fill="#49568E"/>
<path d="M20.6209 18.0222H19.7311V18.9121H20.6209V18.0222Z" fill="#49568E"/>
<path d="M20.6209 17.1133H19.7311V18.0031H20.6209V17.1133Z" fill="#49568E"/>
<path d="M20.6209 16.2229H19.7311V17.1127H20.6209V16.2229Z" fill="#49568E"/>
<path d="M20.6209 6.35791H19.7311V7.24775H20.6209V6.35791Z" fill="#49568E"/>
<path d="M20.6209 5.46802H19.7311V6.35785H20.6209V5.46802Z" fill="#49568E"/>
<path d="M20.6209 4.55859H19.7311V5.44842H20.6209V4.55859Z" fill="#49568E"/>
<path d="M20.6209 3.66919H19.7311V4.55903H20.6209V3.66919Z" fill="#49568E"/>
<path d="M20.6209 2.77905H19.7311V3.66889H20.6209V2.77905Z" fill="#49568E"/>
<path d="M20.6209 1.87012H19.7311V2.75995H20.6209V1.87012Z" fill="#774017"/>
<path d="M20.6209 0.980225H19.7311V1.87005H20.6209V0.980225Z" fill="#9B5E2C"/>
<path d="M20.6209 0.090332H19.7311V0.980168H20.6209V0.090332Z" fill="#9B5E2C"/>
<path d="M21.53 22.51H20.6402V23.3998H21.53V22.51Z" fill="#774017"/>
<path d="M21.53 21.6011H20.6402V22.4909H21.53V21.6011Z" fill="#9B5E2C"/>
<path d="M21.53 20.7112H20.6402V21.601H21.53V20.7112Z" fill="#9B5E2C"/>
<path d="M21.53 1.87012H20.6402V2.75995H21.53V1.87012Z" fill="#774017"/>
<path d="M21.53 0.980225H20.6402V1.87005H21.53V0.980225Z" fill="#9B5E2C"/>
<path d="M21.53 0.090332H20.6402V0.980168H21.53V0.090332Z" fill="#9B5E2C"/>
<path d="M22.4199 22.51H21.53V23.3998H22.4199V22.51Z" fill="#774017"/>
<path d="M22.4199 21.6011H21.53V22.4909H22.4199V21.6011Z" fill="#9B5E2C"/>
<path d="M22.4199 20.7112H21.53V21.601H22.4199V20.7112Z" fill="#9B5E2C"/>
<path d="M22.4199 1.87012H21.53V2.75995H22.4199V1.87012Z" fill="#774017"/>
<path d="M22.4199 0.980225H21.53V1.87005H22.4199V0.980225Z" fill="#9B5E2C"/>
<path d="M22.4199 0.090332H21.53V0.980168H22.4199V0.090332Z" fill="#9B5E2C"/>
</svg>
